<svg preserveAspectRatio="xMidYMid meet" data-bbox="0 0 684.452 228.697" viewBox="0 0 667.21 252.58" xmlns="http://www.w3.org/2000/svg" data-type="ugc" role="presentation" aria-hidden="true" aria-label="">
    <g>
        <g>
            <text transform="translate(225.21 151.82)" font-size="88.88" font-family="Poppins-SemiBold,Poppins" font-weight="600" fill="#17744b">WEECARE<tspan font-size="63.26" letter-spacing=".42em" fill="#be202e"><tspan y="63.26" x="6.29">CANADA</tspan></tspan></text>
            <path d="m224.39 75.55-16-10.89L113.59 0 18.75 64.57l-16 10.89A6.39 6.39 0 0 0 0 80.71v.09A6.34 6.34 0 0 0 9.91 86l8.84-6 14 44.51-.47-53.74 81.2-55.33h.08l81.21 55.33v53.75h6.79L208.4 80l8.84 6a6.35 6.35 0 0 0 7.15-10.49Z" fill="#17744b"></path>
            <path d="M131.53 191.35c-.48 1.61 1.33 5.25 6.17 4.82s28-11.34 28-11.34l-30.16 3.29a4.7 4.7 0 0 0-4.01 3.23" fill="#9156a3"></path>
            <path d="M131.53 191.35c-.48 1.61 1.33 5.25 6.17 4.82s28-11.34 28-11.34l-30.16 3.29a4.7 4.7 0 0 0-4.01 3.23Z" fill="#be202e" stroke="#ffffff" stroke-miterlimit="10"></path>
            <path d="M121.4 206.66c-.05 2.38 1.3 4.67 6.88 4.33 10.37-9.61 23.06-18.25 37.45-26.16l-40 15.88a6.68 6.68 0 0 0-4.33 5.95" fill="#9156a3"></path>
            <path d="M121.4 206.66c-.05 2.38 1.3 4.67 6.88 4.33 10.37-9.61 18.58-17.3 33-25.22l-35.54 14.94a6.68 6.68 0 0 0-4.34 5.95Z" fill="#be202e" stroke="#ffffff" stroke-miterlimit="10"></path>
            <path d="M168.2 202.47c-13.11 10.31-26.44 15.77-39.92 17.47a3.22 3.22 0 0 1-3.35-4.56c3.81-7.68 19.54-18.5 36.32-29.61a49 49 0 0 0 16-17.14c2.82-5.13 5-11.3 4.4-17.65s-6-9.56-12.34-8.13c-.62.14-1.93.35-2.61.56-1.27.38-2.7 1.36-3.95 1.78-3.77 1.26-12.09 0-12.38-5.34-.7-6.47 9-5.59 14.25-6.57C193 128 208.4 80 208.4 80c2.05 68.18-3.63 93.7-40.2 122.47" fill="#be202e"></path>
            <path d="M95.91 191.35c.48 1.61-1.33 5.25-6.17 4.82s-28-11.34-28-11.34l30.16 3.29a4.7 4.7 0 0 1 4.01 3.23" fill="#9156a3"></path>
            <path d="M95.91 191.35c.48 1.61-1.33 5.25-6.17 4.82s-28-11.34-28-11.34l30.16 3.29a4.7 4.7 0 0 1 4.01 3.23Z" fill="#be202e" stroke="#ffffff" stroke-miterlimit="10"></path>
            <path d="M106 206.66c0 2.38-1.3 4.67-6.88 4.33-10.37-9.61-23.06-18.25-37.45-26.16l40 15.88a6.68 6.68 0 0 1 4.33 5.95" fill="#9156a3"></path>
            <path d="M106 206.66c0 2.38-1.3 4.67-6.88 4.33-10.37-9.61-18.58-17.3-33-25.22l35.54 14.94a6.68 6.68 0 0 1 4.34 5.95Z" fill="#be202e" stroke="#ffffff" stroke-miterlimit="10"></path>
            <path d="M59.24 202.47c13.11 10.31 26.44 15.77 39.92 17.47a3.22 3.22 0 0 0 3.35-4.56c-3.81-7.68-19.51-18.5-36.32-29.61a49 49 0 0 1-16-17.14c-2.82-5.13-5-11.3-4.4-17.65s6.05-9.56 12.34-8.13c.62.14 1.93.35 2.61.56 1.27.38 2.7 1.36 4 1.78 3.77 1.26 12.09 0 12.38-5.34.7-6.47-9-5.59-14.25-6.57C34.41 128 19 80 19 80c-2 68.18 3.67 93.7 40.24 122.47" fill="#be202e"></path>
            <path d="M117.25 103.08a10.7 10.7 0 0 0-3-.42 10.9 10.9 0 0 0-3.23.49 10.8 10.8 0 0 0-4 2.36 10.73 10.73 0 0 0-7.29-2.85 11.16 11.16 0 0 0-11 11.33 16.64 16.64 0 0 0 4.67 11.23h-9.63v-1.48a7.23 7.23 0 0 0-2.41-5.37 8.64 8.64 0 0 0-6.47-1.82v-10.82a17.13 17.13 0 0 1 11.67-16.24 11.8 11.8 0 0 0 19.35.09 17.37 17.37 0 0 1 10.57 10.53 15.6 15.6 0 0 1 .77 2.97" fill="#17744b"></path>
            <path d="M107.86 133.74c.08 0 .4-.15.91-.37l-1 11-2.13 41.11H88.59l-4.12-58.25h11a37.5 37.5 0 0 0 9.2 5.87c.83.38 1.38.59 1.5.63l.85.32Z" fill="#17744b"></path>
            <path d="M148.92 116.72v23.62a4.17 4.17 0 0 1-4.17 4.17h-35.93a4.3 4.3 0 0 1-1-.13 4.17 4.17 0 0 1-3.14-4v-7.23c.83.38 1.38.59 1.5.63l.85.32.85-.32c.08 0 .4-.15.91-.37 3.61-1.55 16.49-7.9 16.49-19.38a11.29 11.29 0 0 0-8-10.91 10.7 10.7 0 0 0-3-.42 10.9 10.9 0 0 0-3.23.49 17.7 17.7 0 0 1 7.82-3.69 10.91 10.91 0 0 0 16.68.19 17.59 17.59 0 0 1 13.37 17.03" fill="#17744b"></path>
            <path fill="#17744b" d="M114.87 146.25h25.08l-5.67 38.69H120.4"></path>
            <path d="M132.85 78.22a6 6 0 0 1-.38 2.11c-.95-1.8-3.27-2.32-5.3-2.34a20 20 0 0 0-5.15.64 3.16 3.16 0 0 0-1.3.56 1.26 1.26 0 0 0-.48 1.27c-1.24-4.21 1.52-8.73 6.13-8.73a6.64 6.64 0 0 1 6.48 6.49" fill="#17744b"></path>
            <path d="M122.75 114c0 4.5-2.41 8.15-5.35 10.93-.11.1-.22.21-.33.3a35 35 0 0 1-8.15 5.38c-1.22.58-2 .87-2 .87s-.93-.34-2.34-1a37 37 0 0 1-5.33-3.19 29 29 0 0 1-2.49-2c-3.08-2.81-5.67-6.56-5.67-11.23a8.73 8.73 0 0 1 8.55-8.91 8.41 8.41 0 0 1 6.87 3.61 7 7 0 0 1 .41.63 8.5 8.5 0 0 1 7.29-4.24 8.1 8.1 0 0 1 3.19.65 8.9 8.9 0 0 1 5.35 8.2" fill="#be202e"></path>
            <path d="M79.06 185.69v-62.06a2.14 2.14 0 0 0-2.13-2.13 2.15 2.15 0 0 0-2.13 2.13v1.82a1.61 1.61 0 0 1-3.22 0v-1.82a5.34 5.34 0 0 1 5.35-5.35 5.36 5.36 0 0 1 5.35 5.35v62.06" fill="#be202e"></path>
            <path fill="#17744b" d="M137.13 90.39c0 5.766-4.674 10.44-10.44 10.44s-10.44-4.674-10.44-10.44 4.674-10.44 10.44-10.44 10.44 4.674 10.44 10.44"></path>
            <path fill="#17744b" d="M106.92 81.56c0 5.893-4.777 10.67-10.67 10.67s-10.67-4.777-10.67-10.67 4.777-10.67 10.67-10.67 10.67 4.777 10.67 10.67"></path>
        </g>
    </g>
</svg>